<svg xmlns="http://www.w3.org/2000/svg" viewBox="0 0 1000 324.68">
  <path fill="#1434CB" d="M651.19,0,575.72,324.68h120L771.21,0Z"/>
  <path fill="#1434CB" d="M432.29,0,352.64,220.51,336.19,150.9c-36.88-85.36-107.22-133.76-189-151.88L222.13,324.68H347.77L499.71,0Z"/>
  <path fill="#1434CB" d="M95.74,0,1.2,324.68H121.85L216.38,0Z"/>
  <path fill="#F99F1B" d="M834.91,0c-27.28,0-52.43,4.77-65.54,22.51L660,324.68H781.48l16.25-45H903.18l9.42,45h105V0ZM829.84,218.32l30.57-147.6,17.17,147.6Z"/>
  <path fill="#1434CB" d="M265.91,0C116.27,0,105.67,83.06,105.67,91.6c0,79.86,132,85.36,132,129.54,0,44.18-118.55,36.37-157.61-8.54L56.65,251.42C95.74,296.33,150.85,325.41,212.3,324.68c115.09,0,157.61-57.09,157.61-106.3,0-81.33-132.73-89.14-132.73-129.54C237.18,56.16,265.91,43.25,307,43.25c26.55,0,54.56,5.5,77.64,18.47L400.25,22.51C367.19,7.91,314.76,0,265.91,0Z"/>
</svg> 